<mxfile host="app.diagrams.net" modified="2023-12-26T09:27:47.575Z" agent="Mozilla/5.0 (Macintosh; Intel Mac OS X 10_15_7) AppleWebKit/537.36 (KHTML, like Gecko) Chrome/120.0.0.0 Safari/537.36" etag="Z06FsWU3J9RgXpCK61YE" version="22.1.11" type="github">
  <diagram name="Page-1" id="2YBvvXClWsGukQMizWep">
    <mxGraphModel dx="765" dy="454" grid="1" gridSize="10" guides="1" tooltips="1" connect="1" arrows="1" fold="1" page="1" pageScale="1" pageWidth="850" pageHeight="1100" math="0" shadow="0">
      <root>
        <mxCell id="0" />
        <mxCell id="1" parent="0" />
        <mxCell id="aM9ryv3xv72pqoxQDRHE-1" value="Bloc Layer&lt;br&gt;(Business Logic)" style="shape=umlLifeline;perimeter=lifelinePerimeter;whiteSpace=wrap;html=1;container=0;dropTarget=0;collapsible=0;recursiveResize=0;outlineConnect=0;portConstraint=eastwest;newEdgeStyle={&quot;edgeStyle&quot;:&quot;elbowEdgeStyle&quot;,&quot;elbow&quot;:&quot;vertical&quot;,&quot;curved&quot;:0,&quot;rounded&quot;:0};" parent="1" vertex="1">
          <mxGeometry x="310" y="70" width="100" height="410" as="geometry" />
        </mxCell>
        <mxCell id="aM9ryv3xv72pqoxQDRHE-2" value="" style="html=1;points=[];perimeter=orthogonalPerimeter;outlineConnect=0;targetShapes=umlLifeline;portConstraint=eastwest;newEdgeStyle={&quot;edgeStyle&quot;:&quot;elbowEdgeStyle&quot;,&quot;elbow&quot;:&quot;vertical&quot;,&quot;curved&quot;:0,&quot;rounded&quot;:0};" parent="aM9ryv3xv72pqoxQDRHE-1" vertex="1">
          <mxGeometry x="45" y="70" width="10" height="190" as="geometry" />
        </mxCell>
        <mxCell id="tvcCBBm_UsV2c8IRRgWx-17" value="" style="html=1;points=[];perimeter=orthogonalPerimeter;outlineConnect=0;targetShapes=umlLifeline;portConstraint=eastwest;newEdgeStyle={&quot;edgeStyle&quot;:&quot;elbowEdgeStyle&quot;,&quot;elbow&quot;:&quot;vertical&quot;,&quot;curved&quot;:0,&quot;rounded&quot;:0};" vertex="1" parent="aM9ryv3xv72pqoxQDRHE-1">
          <mxGeometry x="51" y="96" width="10" height="80" as="geometry" />
        </mxCell>
        <mxCell id="aM9ryv3xv72pqoxQDRHE-7" value="Trigger &lt;br&gt;dispatch" style="html=1;verticalAlign=bottom;endArrow=block;edgeStyle=elbowEdgeStyle;elbow=horizontal;curved=0;rounded=0;" parent="1" target="tvcCBBm_UsV2c8IRRgWx-12" edge="1">
          <mxGeometry x="0.0023" relative="1" as="geometry">
            <mxPoint x="370" y="250.00000000000006" as="sourcePoint" />
            <Array as="points">
              <mxPoint x="455" y="250" />
            </Array>
            <mxPoint x="585" y="250" as="targetPoint" />
            <mxPoint as="offset" />
          </mxGeometry>
        </mxCell>
        <mxCell id="aM9ryv3xv72pqoxQDRHE-9" value="callback" style="html=1;verticalAlign=bottom;endArrow=block;edgeStyle=elbowEdgeStyle;elbow=vertical;curved=0;rounded=0;" parent="1" source="tvcCBBm_UsV2c8IRRgWx-12" edge="1">
          <mxGeometry relative="1" as="geometry">
            <mxPoint x="585" y="297" as="sourcePoint" />
            <Array as="points">
              <mxPoint x="456" y="297" />
            </Array>
            <mxPoint x="365.9999999999999" y="297.00000000000006" as="targetPoint" />
          </mxGeometry>
        </mxCell>
        <mxCell id="tvcCBBm_UsV2c8IRRgWx-1" value="Actor" style="shape=umlActor;verticalLabelPosition=bottom;verticalAlign=top;html=1;outlineConnect=0;" vertex="1" parent="1">
          <mxGeometry x="30" y="50" width="20" height="40" as="geometry" />
        </mxCell>
        <mxCell id="tvcCBBm_UsV2c8IRRgWx-2" value="" style="endArrow=none;html=1;rounded=0;" edge="1" parent="1">
          <mxGeometry width="50" height="50" relative="1" as="geometry">
            <mxPoint x="40" y="480" as="sourcePoint" />
            <mxPoint x="39.72" y="120" as="targetPoint" />
          </mxGeometry>
        </mxCell>
        <mxCell id="tvcCBBm_UsV2c8IRRgWx-6" value="" style="endArrow=classic;html=1;rounded=0;" edge="1" parent="1" target="aM9ryv3xv72pqoxQDRHE-1">
          <mxGeometry width="50" height="50" relative="1" as="geometry">
            <mxPoint x="40" y="160" as="sourcePoint" />
            <mxPoint x="90" y="110" as="targetPoint" />
          </mxGeometry>
        </mxCell>
        <mxCell id="tvcCBBm_UsV2c8IRRgWx-7" value="User make an async interaction" style="text;html=1;strokeColor=none;fillColor=none;align=center;verticalAlign=middle;whiteSpace=wrap;rounded=0;fontSize=9;" vertex="1" parent="1">
          <mxGeometry x="50" y="140" width="150" height="20" as="geometry" />
        </mxCell>
        <mxCell id="tvcCBBm_UsV2c8IRRgWx-10" value="Business logic Execution" style="text;html=1;strokeColor=none;fillColor=none;align=center;verticalAlign=middle;whiteSpace=wrap;rounded=0;rotation=91;fontSize=8;" vertex="1" parent="1">
          <mxGeometry x="370" y="190" width="30" height="30" as="geometry" />
        </mxCell>
        <mxCell id="tvcCBBm_UsV2c8IRRgWx-11" value="Repository&#39;s" style="shape=umlLifeline;perimeter=lifelinePerimeter;whiteSpace=wrap;html=1;container=0;dropTarget=0;collapsible=0;recursiveResize=0;outlineConnect=0;portConstraint=eastwest;newEdgeStyle={&quot;edgeStyle&quot;:&quot;elbowEdgeStyle&quot;,&quot;elbow&quot;:&quot;vertical&quot;,&quot;curved&quot;:0,&quot;rounded&quot;:0};" vertex="1" parent="1">
          <mxGeometry x="442" y="70" width="100" height="410" as="geometry" />
        </mxCell>
        <mxCell id="tvcCBBm_UsV2c8IRRgWx-12" value="" style="html=1;points=[];perimeter=orthogonalPerimeter;outlineConnect=0;targetShapes=umlLifeline;portConstraint=eastwest;newEdgeStyle={&quot;edgeStyle&quot;:&quot;elbowEdgeStyle&quot;,&quot;elbow&quot;:&quot;vertical&quot;,&quot;curved&quot;:0,&quot;rounded&quot;:0};" vertex="1" parent="tvcCBBm_UsV2c8IRRgWx-11">
          <mxGeometry x="45" y="140" width="10" height="180" as="geometry" />
        </mxCell>
        <mxCell id="tvcCBBm_UsV2c8IRRgWx-13" value="" style="html=1;points=[];perimeter=orthogonalPerimeter;outlineConnect=0;targetShapes=umlLifeline;portConstraint=eastwest;newEdgeStyle={&quot;edgeStyle&quot;:&quot;elbowEdgeStyle&quot;,&quot;elbow&quot;:&quot;vertical&quot;,&quot;curved&quot;:0,&quot;rounded&quot;:0};" vertex="1" parent="tvcCBBm_UsV2c8IRRgWx-11">
          <mxGeometry x="50" y="183" width="10" height="40" as="geometry" />
        </mxCell>
        <mxCell id="tvcCBBm_UsV2c8IRRgWx-25" value="" style="html=1;points=[];perimeter=orthogonalPerimeter;outlineConnect=0;targetShapes=umlLifeline;portConstraint=eastwest;newEdgeStyle={&quot;edgeStyle&quot;:&quot;elbowEdgeStyle&quot;,&quot;elbow&quot;:&quot;vertical&quot;,&quot;curved&quot;:0,&quot;rounded&quot;:0};" vertex="1" parent="tvcCBBm_UsV2c8IRRgWx-11">
          <mxGeometry x="50.5" y="243.67" width="10" height="60.33" as="geometry" />
        </mxCell>
        <mxCell id="tvcCBBm_UsV2c8IRRgWx-14" value="" style="endArrow=classic;html=1;rounded=0;" edge="1" parent="1" source="aM9ryv3xv72pqoxQDRHE-1">
          <mxGeometry width="50" height="50" relative="1" as="geometry">
            <mxPoint x="229.75" y="256" as="sourcePoint" />
            <mxPoint x="40.25" y="256" as="targetPoint" />
          </mxGeometry>
        </mxCell>
        <mxCell id="tvcCBBm_UsV2c8IRRgWx-16" value="Async interaction Competed" style="text;html=1;strokeColor=none;fillColor=none;align=center;verticalAlign=middle;whiteSpace=wrap;rounded=0;fontSize=9;" vertex="1" parent="1">
          <mxGeometry x="60" y="233.32999999999998" width="150" height="20" as="geometry" />
        </mxCell>
        <mxCell id="tvcCBBm_UsV2c8IRRgWx-18" value="Local Datasource&lt;br&gt;(No-SQL)" style="shape=umlLifeline;perimeter=lifelinePerimeter;whiteSpace=wrap;html=1;container=0;dropTarget=0;collapsible=0;recursiveResize=0;outlineConnect=0;portConstraint=eastwest;newEdgeStyle={&quot;edgeStyle&quot;:&quot;elbowEdgeStyle&quot;,&quot;elbow&quot;:&quot;vertical&quot;,&quot;curved&quot;:0,&quot;rounded&quot;:0};" vertex="1" parent="1">
          <mxGeometry x="592" y="70" width="100" height="410" as="geometry" />
        </mxCell>
        <mxCell id="tvcCBBm_UsV2c8IRRgWx-19" value="" style="html=1;points=[];perimeter=orthogonalPerimeter;outlineConnect=0;targetShapes=umlLifeline;portConstraint=eastwest;newEdgeStyle={&quot;edgeStyle&quot;:&quot;elbowEdgeStyle&quot;,&quot;elbow&quot;:&quot;vertical&quot;,&quot;curved&quot;:0,&quot;rounded&quot;:0};" vertex="1" parent="tvcCBBm_UsV2c8IRRgWx-18">
          <mxGeometry x="45" y="160" width="10" height="200" as="geometry" />
        </mxCell>
        <mxCell id="tvcCBBm_UsV2c8IRRgWx-20" value="" style="html=1;points=[];perimeter=orthogonalPerimeter;outlineConnect=0;targetShapes=umlLifeline;portConstraint=eastwest;newEdgeStyle={&quot;edgeStyle&quot;:&quot;elbowEdgeStyle&quot;,&quot;elbow&quot;:&quot;vertical&quot;,&quot;curved&quot;:0,&quot;rounded&quot;:0};" vertex="1" parent="tvcCBBm_UsV2c8IRRgWx-18">
          <mxGeometry x="49" y="182" width="10" height="44" as="geometry" />
        </mxCell>
        <mxCell id="tvcCBBm_UsV2c8IRRgWx-21" value="" style="endArrow=classic;html=1;rounded=0;" edge="1" parent="1" source="tvcCBBm_UsV2c8IRRgWx-13" target="tvcCBBm_UsV2c8IRRgWx-19">
          <mxGeometry width="50" height="50" relative="1" as="geometry">
            <mxPoint x="532" y="270" as="sourcePoint" />
            <mxPoint x="640" y="260" as="targetPoint" />
            <Array as="points">
              <mxPoint x="572" y="260" />
            </Array>
          </mxGeometry>
        </mxCell>
        <mxCell id="tvcCBBm_UsV2c8IRRgWx-22" value="CURD&#39;s Tnx trigger" style="text;html=1;strokeColor=none;fillColor=none;align=center;verticalAlign=middle;whiteSpace=wrap;rounded=0;rotation=0;fontSize=8;" vertex="1" parent="1">
          <mxGeometry x="530" y="233.33" width="80" height="30" as="geometry" />
        </mxCell>
        <mxCell id="tvcCBBm_UsV2c8IRRgWx-23" value="" style="endArrow=classic;html=1;rounded=0;" edge="1" parent="1">
          <mxGeometry width="50" height="50" relative="1" as="geometry">
            <mxPoint x="512" y="290" as="sourcePoint" />
            <mxPoint x="502" y="290" as="targetPoint" />
            <Array as="points">
              <mxPoint x="640" y="290" />
            </Array>
          </mxGeometry>
        </mxCell>
        <mxCell id="tvcCBBm_UsV2c8IRRgWx-24" value="CURD&#39;s Tnx Completion" style="text;html=1;strokeColor=none;fillColor=none;align=center;verticalAlign=middle;whiteSpace=wrap;rounded=0;rotation=0;fontSize=8;" vertex="1" parent="1">
          <mxGeometry x="530" y="263.33" width="90" height="36.67" as="geometry" />
        </mxCell>
        <mxCell id="tvcCBBm_UsV2c8IRRgWx-27" value="" style="endArrow=classic;html=1;rounded=0;" edge="1" parent="1">
          <mxGeometry width="50" height="50" relative="1" as="geometry">
            <mxPoint x="502.5" y="319.6700000000001" as="sourcePoint" />
            <mxPoint x="755" y="319.6700000000001" as="targetPoint" />
            <Array as="points">
              <mxPoint x="572.5" y="319.67" />
            </Array>
          </mxGeometry>
        </mxCell>
        <mxCell id="tvcCBBm_UsV2c8IRRgWx-28" value="Api Sync trigger" style="text;html=1;strokeColor=none;fillColor=none;align=center;verticalAlign=middle;whiteSpace=wrap;rounded=0;rotation=0;fontSize=8;" vertex="1" parent="1">
          <mxGeometry x="654" y="297" width="80" height="30" as="geometry" />
        </mxCell>
        <mxCell id="tvcCBBm_UsV2c8IRRgWx-31" value="PlateronSync&lt;br&gt;(SQL db)" style="shape=umlLifeline;perimeter=lifelinePerimeter;whiteSpace=wrap;html=1;container=0;dropTarget=0;collapsible=0;recursiveResize=0;outlineConnect=0;portConstraint=eastwest;newEdgeStyle={&quot;edgeStyle&quot;:&quot;elbowEdgeStyle&quot;,&quot;elbow&quot;:&quot;vertical&quot;,&quot;curved&quot;:0,&quot;rounded&quot;:0};" vertex="1" parent="1">
          <mxGeometry x="840" y="70" width="100" height="570" as="geometry" />
        </mxCell>
        <mxCell id="tvcCBBm_UsV2c8IRRgWx-32" value="" style="html=1;points=[];perimeter=orthogonalPerimeter;outlineConnect=0;targetShapes=umlLifeline;portConstraint=eastwest;newEdgeStyle={&quot;edgeStyle&quot;:&quot;elbowEdgeStyle&quot;,&quot;elbow&quot;:&quot;vertical&quot;,&quot;curved&quot;:0,&quot;rounded&quot;:0};" vertex="1" parent="tvcCBBm_UsV2c8IRRgWx-31">
          <mxGeometry x="45" y="269" width="10" height="110" as="geometry" />
        </mxCell>
        <mxCell id="tvcCBBm_UsV2c8IRRgWx-34" value="" style="html=1;points=[];perimeter=orthogonalPerimeter;outlineConnect=0;targetShapes=umlLifeline;portConstraint=eastwest;newEdgeStyle={&quot;edgeStyle&quot;:&quot;elbowEdgeStyle&quot;,&quot;elbow&quot;:&quot;vertical&quot;,&quot;curved&quot;:0,&quot;rounded&quot;:0};" vertex="1" parent="tvcCBBm_UsV2c8IRRgWx-31">
          <mxGeometry x="51" y="279" width="10" height="60" as="geometry" />
        </mxCell>
        <mxCell id="tvcCBBm_UsV2c8IRRgWx-80" value="" style="html=1;points=[];perimeter=orthogonalPerimeter;outlineConnect=0;targetShapes=umlLifeline;portConstraint=eastwest;newEdgeStyle={&quot;edgeStyle&quot;:&quot;elbowEdgeStyle&quot;,&quot;elbow&quot;:&quot;vertical&quot;,&quot;curved&quot;:0,&quot;rounded&quot;:0};" vertex="1" parent="tvcCBBm_UsV2c8IRRgWx-31">
          <mxGeometry x="45.5" y="107" width="10" height="110" as="geometry" />
        </mxCell>
        <mxCell id="tvcCBBm_UsV2c8IRRgWx-81" value="" style="html=1;points=[];perimeter=orthogonalPerimeter;outlineConnect=0;targetShapes=umlLifeline;portConstraint=eastwest;newEdgeStyle={&quot;edgeStyle&quot;:&quot;elbowEdgeStyle&quot;,&quot;elbow&quot;:&quot;vertical&quot;,&quot;curved&quot;:0,&quot;rounded&quot;:0};" vertex="1" parent="tvcCBBm_UsV2c8IRRgWx-31">
          <mxGeometry x="51.5" y="117" width="10" height="60" as="geometry" />
        </mxCell>
        <mxCell id="tvcCBBm_UsV2c8IRRgWx-82" value="" style="html=1;points=[];perimeter=orthogonalPerimeter;outlineConnect=0;targetShapes=umlLifeline;portConstraint=eastwest;newEdgeStyle={&quot;edgeStyle&quot;:&quot;elbowEdgeStyle&quot;,&quot;elbow&quot;:&quot;vertical&quot;,&quot;curved&quot;:0,&quot;rounded&quot;:0};" vertex="1" parent="tvcCBBm_UsV2c8IRRgWx-31">
          <mxGeometry x="-80" y="80" width="10" height="98" as="geometry" />
        </mxCell>
        <mxCell id="tvcCBBm_UsV2c8IRRgWx-83" value="" style="edgeStyle=elbowEdgeStyle;rounded=0;orthogonalLoop=1;jettySize=auto;html=1;elbow=vertical;curved=0;" edge="1" parent="tvcCBBm_UsV2c8IRRgWx-31">
          <mxGeometry relative="1" as="geometry">
            <mxPoint x="-70" y="131.00076923076927" as="sourcePoint" />
            <mxPoint x="45.5" y="131.00076923076927" as="targetPoint" />
          </mxGeometry>
        </mxCell>
        <mxCell id="tvcCBBm_UsV2c8IRRgWx-84" value="Previous sync failures" style="text;html=1;strokeColor=none;fillColor=none;align=center;verticalAlign=middle;whiteSpace=wrap;rounded=0;rotation=0;fontSize=8;" vertex="1" parent="tvcCBBm_UsV2c8IRRgWx-31">
          <mxGeometry x="-62.5" y="107" width="100" height="30" as="geometry" />
        </mxCell>
        <mxCell id="tvcCBBm_UsV2c8IRRgWx-85" value="" style="endArrow=classic;html=1;rounded=0;" edge="1" source="tvcCBBm_UsV2c8IRRgWx-80" parent="tvcCBBm_UsV2c8IRRgWx-31">
          <mxGeometry width="50" height="50" relative="1" as="geometry">
            <mxPoint x="-149.5" y="157" as="sourcePoint" />
            <mxPoint x="-69.99999999999977" y="166.9999999999999" as="targetPoint" />
            <Array as="points">
              <mxPoint x="-9.5" y="167" />
            </Array>
          </mxGeometry>
        </mxCell>
        <mxCell id="tvcCBBm_UsV2c8IRRgWx-86" value="Recorded Tnx with meta data" style="text;html=1;strokeColor=none;fillColor=none;align=center;verticalAlign=middle;whiteSpace=wrap;rounded=0;" vertex="1" parent="tvcCBBm_UsV2c8IRRgWx-31">
          <mxGeometry x="-77.5" y="135" width="130" height="30" as="geometry" />
        </mxCell>
        <mxCell id="tvcCBBm_UsV2c8IRRgWx-35" value="Remote Dataservice&lt;br&gt;(REST)" style="shape=umlLifeline;perimeter=lifelinePerimeter;whiteSpace=wrap;html=1;container=0;dropTarget=0;collapsible=0;recursiveResize=0;outlineConnect=0;portConstraint=eastwest;newEdgeStyle={&quot;edgeStyle&quot;:&quot;elbowEdgeStyle&quot;,&quot;elbow&quot;:&quot;vertical&quot;,&quot;curved&quot;:0,&quot;rounded&quot;:0};" vertex="1" parent="1">
          <mxGeometry x="710" y="70" width="110" height="410" as="geometry" />
        </mxCell>
        <mxCell id="tvcCBBm_UsV2c8IRRgWx-36" value="" style="html=1;points=[];perimeter=orthogonalPerimeter;outlineConnect=0;targetShapes=umlLifeline;portConstraint=eastwest;newEdgeStyle={&quot;edgeStyle&quot;:&quot;elbowEdgeStyle&quot;,&quot;elbow&quot;:&quot;vertical&quot;,&quot;curved&quot;:0,&quot;rounded&quot;:0};" vertex="1" parent="tvcCBBm_UsV2c8IRRgWx-35">
          <mxGeometry x="45" y="70" width="10" height="290" as="geometry" />
        </mxCell>
        <mxCell id="tvcCBBm_UsV2c8IRRgWx-38" value="" style="html=1;points=[];perimeter=orthogonalPerimeter;outlineConnect=0;targetShapes=umlLifeline;portConstraint=eastwest;newEdgeStyle={&quot;edgeStyle&quot;:&quot;elbowEdgeStyle&quot;,&quot;elbow&quot;:&quot;vertical&quot;,&quot;curved&quot;:0,&quot;rounded&quot;:0};" vertex="1" parent="tvcCBBm_UsV2c8IRRgWx-35">
          <mxGeometry x="49.5" y="242" width="10" height="98" as="geometry" />
        </mxCell>
        <mxCell id="tvcCBBm_UsV2c8IRRgWx-39" value="" style="endArrow=classic;html=1;rounded=0;" edge="1" parent="1">
          <mxGeometry width="50" height="50" relative="1" as="geometry">
            <mxPoint x="755" y="400.6700000000001" as="sourcePoint" />
            <mxPoint x="650" y="400" as="targetPoint" />
            <Array as="points" />
          </mxGeometry>
        </mxCell>
        <mxCell id="tvcCBBm_UsV2c8IRRgWx-40" value="Api Sync completion" style="text;html=1;strokeColor=none;fillColor=none;align=center;verticalAlign=middle;whiteSpace=wrap;rounded=0;rotation=0;fontSize=8;" vertex="1" parent="1">
          <mxGeometry x="660" y="378" width="80" height="30" as="geometry" />
        </mxCell>
        <mxCell id="tvcCBBm_UsV2c8IRRgWx-41" value="" style="edgeStyle=elbowEdgeStyle;rounded=0;orthogonalLoop=1;jettySize=auto;html=1;elbow=vertical;curved=0;" edge="1" parent="1">
          <mxGeometry relative="1" as="geometry">
            <mxPoint x="769.5" y="363.00076923076927" as="sourcePoint" />
            <mxPoint x="885" y="363.00076923076927" as="targetPoint" />
          </mxGeometry>
        </mxCell>
        <mxCell id="tvcCBBm_UsV2c8IRRgWx-42" value="failure trigger completion" style="text;html=1;strokeColor=none;fillColor=none;align=center;verticalAlign=middle;whiteSpace=wrap;rounded=0;rotation=0;fontSize=8;" vertex="1" parent="1">
          <mxGeometry x="777" y="339" width="100" height="30" as="geometry" />
        </mxCell>
        <mxCell id="tvcCBBm_UsV2c8IRRgWx-44" value="" style="endArrow=classic;html=1;rounded=0;" edge="1" parent="1" source="tvcCBBm_UsV2c8IRRgWx-32">
          <mxGeometry width="50" height="50" relative="1" as="geometry">
            <mxPoint x="690" y="389" as="sourcePoint" />
            <mxPoint x="769.5000000000002" y="398.9999999999999" as="targetPoint" />
            <Array as="points">
              <mxPoint x="830" y="399" />
            </Array>
          </mxGeometry>
        </mxCell>
        <mxCell id="tvcCBBm_UsV2c8IRRgWx-45" value="Recorded Tnx with meta data" style="text;html=1;strokeColor=none;fillColor=none;align=center;verticalAlign=middle;whiteSpace=wrap;rounded=0;" vertex="1" parent="1">
          <mxGeometry x="762" y="367" width="130" height="30" as="geometry" />
        </mxCell>
        <mxCell id="tvcCBBm_UsV2c8IRRgWx-46" value="" style="endArrow=classic;html=1;rounded=0;" edge="1" parent="1" target="tvcCBBm_UsV2c8IRRgWx-48">
          <mxGeometry width="50" height="50" relative="1" as="geometry">
            <mxPoint x="641.5" y="401" as="sourcePoint" />
            <mxPoint x="40" y="401" as="targetPoint" />
          </mxGeometry>
        </mxCell>
        <mxCell id="tvcCBBm_UsV2c8IRRgWx-47" value="Update Notifier" style="shape=umlLifeline;perimeter=lifelinePerimeter;whiteSpace=wrap;html=1;container=0;dropTarget=0;collapsible=0;recursiveResize=0;outlineConnect=0;portConstraint=eastwest;newEdgeStyle={&quot;edgeStyle&quot;:&quot;elbowEdgeStyle&quot;,&quot;elbow&quot;:&quot;vertical&quot;,&quot;curved&quot;:0,&quot;rounded&quot;:0};" vertex="1" parent="1">
          <mxGeometry x="190" y="70" width="100" height="410" as="geometry" />
        </mxCell>
        <mxCell id="tvcCBBm_UsV2c8IRRgWx-48" value="" style="html=1;points=[];perimeter=orthogonalPerimeter;outlineConnect=0;targetShapes=umlLifeline;portConstraint=eastwest;newEdgeStyle={&quot;edgeStyle&quot;:&quot;elbowEdgeStyle&quot;,&quot;elbow&quot;:&quot;vertical&quot;,&quot;curved&quot;:0,&quot;rounded&quot;:0};" vertex="1" parent="tvcCBBm_UsV2c8IRRgWx-47">
          <mxGeometry x="45" y="200" width="10" height="170" as="geometry" />
        </mxCell>
        <mxCell id="tvcCBBm_UsV2c8IRRgWx-50" value="callback" style="html=1;verticalAlign=bottom;endArrow=block;edgeStyle=elbowEdgeStyle;elbow=vertical;curved=0;rounded=0;" edge="1" parent="1">
          <mxGeometry relative="1" as="geometry">
            <mxPoint x="361" y="297" as="sourcePoint" />
            <Array as="points">
              <mxPoint x="330" y="297" />
            </Array>
            <mxPoint x="239.9999999999999" y="297.00000000000006" as="targetPoint" />
          </mxGeometry>
        </mxCell>
        <mxCell id="tvcCBBm_UsV2c8IRRgWx-51" value="" style="endArrow=classic;html=1;rounded=0;" edge="1" parent="1" source="tvcCBBm_UsV2c8IRRgWx-47">
          <mxGeometry width="50" height="50" relative="1" as="geometry">
            <mxPoint x="380" y="340" as="sourcePoint" />
            <mxPoint x="40" y="330" as="targetPoint" />
            <Array as="points">
              <mxPoint x="140" y="330" />
            </Array>
          </mxGeometry>
        </mxCell>
        <mxCell id="tvcCBBm_UsV2c8IRRgWx-52" value="UI Rebuild" style="text;html=1;strokeColor=none;fillColor=none;align=center;verticalAlign=middle;whiteSpace=wrap;rounded=0;" vertex="1" parent="1">
          <mxGeometry x="95" y="300" width="60" height="30" as="geometry" />
        </mxCell>
        <mxCell id="tvcCBBm_UsV2c8IRRgWx-53" value="" style="endArrow=none;dashed=1;html=1;dashPattern=1 3;strokeWidth=2;rounded=0;" edge="1" parent="1" source="tvcCBBm_UsV2c8IRRgWx-48">
          <mxGeometry width="50" height="50" relative="1" as="geometry">
            <mxPoint x="310" y="380" as="sourcePoint" />
            <mxPoint x="40" y="400" as="targetPoint" />
            <Array as="points">
              <mxPoint x="130" y="400" />
            </Array>
          </mxGeometry>
        </mxCell>
        <mxCell id="tvcCBBm_UsV2c8IRRgWx-54" value="Notify faliure" style="text;html=1;strokeColor=none;fillColor=none;align=center;verticalAlign=middle;whiteSpace=wrap;rounded=0;" vertex="1" parent="1">
          <mxGeometry x="383" y="378" width="85" height="30" as="geometry" />
        </mxCell>
        <mxCell id="tvcCBBm_UsV2c8IRRgWx-56" value="Handel if needed" style="text;html=1;strokeColor=none;fillColor=none;align=center;verticalAlign=middle;whiteSpace=wrap;rounded=0;" vertex="1" parent="1">
          <mxGeometry x="75" y="370" width="120" height="30" as="geometry" />
        </mxCell>
        <mxCell id="tvcCBBm_UsV2c8IRRgWx-57" value="PlateronSync &lt;br&gt;Service" style="shape=umlLifeline;perimeter=lifelinePerimeter;whiteSpace=wrap;html=1;container=0;dropTarget=0;collapsible=0;recursiveResize=0;outlineConnect=0;portConstraint=eastwest;newEdgeStyle={&quot;edgeStyle&quot;:&quot;elbowEdgeStyle&quot;,&quot;elbow&quot;:&quot;vertical&quot;,&quot;curved&quot;:0,&quot;rounded&quot;:0};" vertex="1" parent="1">
          <mxGeometry x="950" y="70" width="130" height="610" as="geometry" />
        </mxCell>
        <mxCell id="tvcCBBm_UsV2c8IRRgWx-58" value="" style="html=1;points=[];perimeter=orthogonalPerimeter;outlineConnect=0;targetShapes=umlLifeline;portConstraint=eastwest;newEdgeStyle={&quot;edgeStyle&quot;:&quot;elbowEdgeStyle&quot;,&quot;elbow&quot;:&quot;vertical&quot;,&quot;curved&quot;:0,&quot;rounded&quot;:0};" vertex="1" parent="tvcCBBm_UsV2c8IRRgWx-57">
          <mxGeometry x="61" y="57" width="10" height="110" as="geometry" />
        </mxCell>
        <mxCell id="tvcCBBm_UsV2c8IRRgWx-98" value="" style="html=1;points=[];perimeter=orthogonalPerimeter;outlineConnect=0;targetShapes=umlLifeline;portConstraint=eastwest;newEdgeStyle={&quot;edgeStyle&quot;:&quot;elbowEdgeStyle&quot;,&quot;elbow&quot;:&quot;vertical&quot;,&quot;curved&quot;:0,&quot;rounded&quot;:0};" vertex="1" parent="tvcCBBm_UsV2c8IRRgWx-57">
          <mxGeometry x="61" y="330" width="10" height="240" as="geometry" />
        </mxCell>
        <mxCell id="tvcCBBm_UsV2c8IRRgWx-60" value="Init()" style="text;html=1;strokeColor=none;fillColor=none;align=center;verticalAlign=middle;whiteSpace=wrap;rounded=0;" vertex="1" parent="1">
          <mxGeometry x="950" y="130" width="60" height="30" as="geometry" />
        </mxCell>
        <mxCell id="tvcCBBm_UsV2c8IRRgWx-62" value="" style="endArrow=classic;html=1;rounded=0;" edge="1" parent="1" target="tvcCBBm_UsV2c8IRRgWx-68">
          <mxGeometry relative="1" as="geometry">
            <mxPoint x="1020" y="184.74" as="sourcePoint" />
            <mxPoint x="1140" y="184.74" as="targetPoint" />
          </mxGeometry>
        </mxCell>
        <mxCell id="tvcCBBm_UsV2c8IRRgWx-63" value="" style="shape=message;html=1;outlineConnect=0;" vertex="1" parent="tvcCBBm_UsV2c8IRRgWx-62">
          <mxGeometry width="20" height="14" relative="1" as="geometry">
            <mxPoint x="-10" y="-7" as="offset" />
          </mxGeometry>
        </mxCell>
        <mxCell id="tvcCBBm_UsV2c8IRRgWx-64" value="Network state broadcast init()" style="text;html=1;strokeColor=none;fillColor=none;align=center;verticalAlign=middle;whiteSpace=wrap;rounded=0;" vertex="1" parent="1">
          <mxGeometry x="1050" y="130" width="80" height="30" as="geometry" />
        </mxCell>
        <mxCell id="tvcCBBm_UsV2c8IRRgWx-67" value="Connectivity&lt;br&gt;&amp;nbsp;Service" style="shape=umlLifeline;perimeter=lifelinePerimeter;whiteSpace=wrap;html=1;container=0;dropTarget=0;collapsible=0;recursiveResize=0;outlineConnect=0;portConstraint=eastwest;newEdgeStyle={&quot;edgeStyle&quot;:&quot;elbowEdgeStyle&quot;,&quot;elbow&quot;:&quot;vertical&quot;,&quot;curved&quot;:0,&quot;rounded&quot;:0};" vertex="1" parent="1">
          <mxGeometry x="1090" y="70" width="130" height="620" as="geometry" />
        </mxCell>
        <mxCell id="tvcCBBm_UsV2c8IRRgWx-68" value="" style="html=1;points=[];perimeter=orthogonalPerimeter;outlineConnect=0;targetShapes=umlLifeline;portConstraint=eastwest;newEdgeStyle={&quot;edgeStyle&quot;:&quot;elbowEdgeStyle&quot;,&quot;elbow&quot;:&quot;vertical&quot;,&quot;curved&quot;:0,&quot;rounded&quot;:0};" vertex="1" parent="tvcCBBm_UsV2c8IRRgWx-67">
          <mxGeometry x="61" y="57" width="10" height="353" as="geometry" />
        </mxCell>
        <mxCell id="tvcCBBm_UsV2c8IRRgWx-69" value="" style="endArrow=classic;html=1;rounded=0;" edge="1" parent="1" source="tvcCBBm_UsV2c8IRRgWx-68" target="tvcCBBm_UsV2c8IRRgWx-58">
          <mxGeometry relative="1" as="geometry">
            <mxPoint x="1080" y="210" as="sourcePoint" />
            <mxPoint x="1180" y="210" as="targetPoint" />
            <Array as="points">
              <mxPoint x="1080" y="230" />
            </Array>
          </mxGeometry>
        </mxCell>
        <mxCell id="tvcCBBm_UsV2c8IRRgWx-70" value="" style="shape=message;html=1;outlineConnect=0;" vertex="1" parent="tvcCBBm_UsV2c8IRRgWx-69">
          <mxGeometry width="20" height="14" relative="1" as="geometry">
            <mxPoint x="-10" y="-7" as="offset" />
          </mxGeometry>
        </mxCell>
        <mxCell id="tvcCBBm_UsV2c8IRRgWx-72" value="&lt;font style=&quot;font-size: 8px;&quot;&gt;-ve network &lt;br&gt;&lt;br&gt;broadcast&lt;/font&gt;" style="text;html=1;strokeColor=none;fillColor=none;align=center;verticalAlign=middle;whiteSpace=wrap;rounded=0;" vertex="1" parent="1">
          <mxGeometry x="1049" y="250" width="70" height="50" as="geometry" />
        </mxCell>
        <mxCell id="tvcCBBm_UsV2c8IRRgWx-73" value="" style="endArrow=classic;html=1;rounded=0;" edge="1" parent="1">
          <mxGeometry width="50" height="50" relative="1" as="geometry">
            <mxPoint x="770" y="316" as="sourcePoint" />
            <mxPoint x="1154.5000000000002" y="316.0000000000001" as="targetPoint" />
          </mxGeometry>
        </mxCell>
        <mxCell id="tvcCBBm_UsV2c8IRRgWx-75" value="&lt;font style=&quot;font-size: 8px;&quot;&gt;checkNetworkState()&lt;/font&gt;" style="text;html=1;strokeColor=none;fillColor=none;align=center;verticalAlign=middle;whiteSpace=wrap;rounded=0;" vertex="1" parent="1">
          <mxGeometry x="782" y="290" width="90" height="30" as="geometry" />
        </mxCell>
        <mxCell id="tvcCBBm_UsV2c8IRRgWx-76" value="" style="endArrow=classic;html=1;rounded=0;" edge="1" parent="1" source="tvcCBBm_UsV2c8IRRgWx-78">
          <mxGeometry width="50" height="50" relative="1" as="geometry">
            <mxPoint x="1148.03" y="330" as="sourcePoint" />
            <mxPoint x="762.0036842105262" y="330" as="targetPoint" />
          </mxGeometry>
        </mxCell>
        <mxCell id="tvcCBBm_UsV2c8IRRgWx-79" value="" style="endArrow=classic;html=1;rounded=0;" edge="1" parent="1" target="tvcCBBm_UsV2c8IRRgWx-78">
          <mxGeometry width="50" height="50" relative="1" as="geometry">
            <mxPoint x="1148.03" y="330" as="sourcePoint" />
            <mxPoint x="762.0036842105262" y="330" as="targetPoint" />
          </mxGeometry>
        </mxCell>
        <mxCell id="tvcCBBm_UsV2c8IRRgWx-78" value="&lt;span style=&quot;font-size: 8px;&quot;&gt;NeworkAbandoned&lt;/span&gt;" style="text;html=1;strokeColor=none;fillColor=none;align=center;verticalAlign=middle;whiteSpace=wrap;rounded=0;" vertex="1" parent="1">
          <mxGeometry x="911" y="315" width="90" height="30" as="geometry" />
        </mxCell>
        <mxCell id="tvcCBBm_UsV2c8IRRgWx-90" value="" style="endArrow=classic;html=1;rounded=0;" edge="1" parent="1" target="tvcCBBm_UsV2c8IRRgWx-57">
          <mxGeometry relative="1" as="geometry">
            <mxPoint x="1150" y="276.67" as="sourcePoint" />
            <mxPoint x="1020" y="276.67" as="targetPoint" />
            <Array as="points">
              <mxPoint x="1079" y="276.67" />
            </Array>
          </mxGeometry>
        </mxCell>
        <mxCell id="tvcCBBm_UsV2c8IRRgWx-91" value="" style="shape=message;html=1;outlineConnect=0;" vertex="1" parent="tvcCBBm_UsV2c8IRRgWx-90">
          <mxGeometry width="20" height="14" relative="1" as="geometry">
            <mxPoint x="-10" y="-7" as="offset" />
          </mxGeometry>
        </mxCell>
        <mxCell id="tvcCBBm_UsV2c8IRRgWx-94" value="&lt;font style=&quot;font-size: 8px;&quot;&gt;-ve network &lt;br&gt;&lt;br&gt;broadcast&lt;/font&gt;" style="text;html=1;strokeColor=none;fillColor=none;align=center;verticalAlign=middle;whiteSpace=wrap;rounded=0;" vertex="1" parent="1">
          <mxGeometry x="1046" y="349" width="70" height="50" as="geometry" />
        </mxCell>
        <mxCell id="tvcCBBm_UsV2c8IRRgWx-95" value="" style="endArrow=classic;html=1;rounded=0;" edge="1" parent="1" target="tvcCBBm_UsV2c8IRRgWx-57">
          <mxGeometry relative="1" as="geometry">
            <mxPoint x="1151" y="377.67" as="sourcePoint" />
            <mxPoint x="1021" y="377.67" as="targetPoint" />
            <Array as="points">
              <mxPoint x="1080" y="377.67" />
            </Array>
          </mxGeometry>
        </mxCell>
        <mxCell id="tvcCBBm_UsV2c8IRRgWx-96" value="" style="shape=message;html=1;outlineConnect=0;" vertex="1" parent="tvcCBBm_UsV2c8IRRgWx-95">
          <mxGeometry width="14.29" height="10" relative="1" as="geometry">
            <mxPoint x="-10" y="-7" as="offset" />
          </mxGeometry>
        </mxCell>
        <mxCell id="tvcCBBm_UsV2c8IRRgWx-99" value="" style="endArrow=classic;html=1;rounded=0;" edge="1" parent="1" source="tvcCBBm_UsV2c8IRRgWx-57" target="tvcCBBm_UsV2c8IRRgWx-57">
          <mxGeometry width="50" height="50" relative="1" as="geometry">
            <mxPoint x="940" y="420" as="sourcePoint" />
            <mxPoint x="990" y="370" as="targetPoint" />
            <Array as="points">
              <mxPoint x="960" y="380" />
              <mxPoint x="960" y="410" />
            </Array>
          </mxGeometry>
        </mxCell>
        <mxCell id="tvcCBBm_UsV2c8IRRgWx-100" value="sync()" style="text;html=1;strokeColor=none;fillColor=none;align=center;verticalAlign=middle;whiteSpace=wrap;rounded=0;fontSize=12;" vertex="1" parent="1">
          <mxGeometry x="955" y="378" width="60" height="30" as="geometry" />
        </mxCell>
      </root>
    </mxGraphModel>
  </diagram>
</mxfile>
